# xmcd CD database file
#
# Track frame offsets:
#	150
#	9517
#	18847
#	28565
#	42622
#	72995
#	86462
#	95302
#	116232
#	138247
#	150642
#	159885
#
# Disc length: 2413 seconds
#
# Revision: 3
# Processed by: cddbd v1.5.2PL0 Copyright (c) Steve Scherf et al.
# Submitted via: CDex 1.51
#
DISCID=8b096b0c
DTITLE=Vários - Esso Ultron Music Collection - MPB
DYEAR=1900
DGENRE=
TTITLE0=Tom Jobim - A Felicidade
TTITLE1=Maria Bethânia - Explode Coração
TTITLE2=Ivan Lins - Madalena
TTITLE3=Gal Costa - Só Louco
TTITLE4=João Bosco - Nação - Aquarela do Brasil - O Mestre Sala dos Mares
TTITLE5=Elis Regina - Fascinação
TTITLE6=Vinícius de Moraes - Pela Luz dos Olhos Teus
TTITLE7=Elba Ramalho - De Volta Pro Aconchego
TTITLE8=Erasmo Carlos - Detalhes
TTITLE9=Emílio Santiago - As Rosas Não Falam
TTITLE10=Elis and Tom - Por Toda Minha Vida
TTITLE11=Toquinho - Para Viver Um Grande Amor - Tarde Em Itapuã
EXTD=
EXTT0=
EXTT1=
EXTT2=
EXTT3=
EXTT4=O mestre-sala dos Mares
EXTT5=
EXTT6=
EXTT7=
EXTT8=
EXTT9=
EXTT10=
EXTT11=Tarde em Itapua
PLAYORDER=
